<svg xmlns="http://www.w3.org/2000/svg" viewBox="0 0 900 1260" role="img" aria-labelledby="title desc">
  <title id="title">LucyLP Music Press Beatles Touring History Cover</title>
  <desc id="desc">A vintage music magazine cover with a touring-era stage artwork, warm spotlights, bold masthead typography, and collector cover lines.</desc>
  <defs>
    <linearGradient id="bg" x1="0" x2="1" y1="0" y2="1">
      <stop offset="0" stop-color="#23120e"/>
      <stop offset="0.38" stop-color="#070707"/>
      <stop offset="1" stop-color="#120707"/>
    </linearGradient>
    <radialGradient id="goldLight" cx="50%" cy="20%" r="70%">
      <stop offset="0" stop-color="#f6e7b0" stop-opacity="0.82"/>
      <stop offset="0.28" stop-color="#d4af37" stop-opacity="0.26"/>
      <stop offset="1" stop-color="#000" stop-opacity="0.84"/>
    </radialGradient>
    <filter id="grain">
      <feTurbulence type="fractalNoise" baseFrequency="0.72" numOctaves="4" seed="22"/>
      <feColorMatrix type="saturate" values="0"/>
      <feComponentTransfer><feFuncA type="table" tableValues="0 0.1"/></feComponentTransfer>
    </filter>
    <filter id="shadow"><feDropShadow dx="0" dy="12" stdDeviation="13" flood-color="#000" flood-opacity="0.74"/></filter>
  </defs>
  <rect width="900" height="1260" fill="url(#bg)"/>
  <rect width="900" height="1260" fill="url(#goldLight)"/>
  <g opacity="0.78" filter="url(#shadow)">
    <path d="M90 500 L230 238 L278 258 L150 526 Z" fill="#d4af37" opacity="0.18"/>
    <path d="M810 500 L670 238 L622 258 L750 526 Z" fill="#d4af37" opacity="0.18"/>
    <path d="M244 430 L286 430 L305 760 L226 760 Z" fill="#090909"/>
    <path d="M388 410 L430 410 L450 790 L365 790 Z" fill="#0b0b0b"/>
    <path d="M530 410 L572 410 L595 790 L508 790 Z" fill="#0b0b0b"/>
    <path d="M672 430 L714 430 L734 760 L654 760 Z" fill="#090909"/>
    <circle cx="265" cy="398" r="44" fill="#111" stroke="#f6e7b0" stroke-width="5"/>
    <circle cx="409" cy="378" r="44" fill="#111" stroke="#d4af37" stroke-width="5"/>
    <circle cx="551" cy="378" r="44" fill="#111" stroke="#d4af37" stroke-width="5"/>
    <circle cx="693" cy="398" r="44" fill="#111" stroke="#f6e7b0" stroke-width="5"/>
    <path d="M164 762 C338 706 552 708 736 762 L736 875 L164 875 Z" fill="#111" stroke="#d4af37" stroke-opacity="0.22"/>
  </g>
  <g opacity="0.28">
    <rect x="0" y="0" width="900" height="1260" fill="none"/>
    <path d="M0 1080 C250 1005 418 1160 900 1030 L900 1260 L0 1260 Z" fill="#000"/>
  </g>
  <rect x="26" y="26" width="848" height="1208" fill="none" stroke="#f6e7b0" stroke-opacity="0.42" stroke-width="3"/>
  <rect x="46" y="46" width="808" height="1168" fill="none" stroke="#d4af37" stroke-opacity="0.24" stroke-width="1"/>
  <text x="450" y="114" text-anchor="middle" font-family="Georgia, 'Times New Roman', serif" font-size="72" font-weight="900" fill="#f6e7b0">LucyLP</text>
  <text x="450" y="158" text-anchor="middle" font-family="Arial, sans-serif" font-size="30" font-weight="900" fill="#d4af37">MUSIC PRESS</text>
  <line x1="72" y1="184" x2="828" y2="184" stroke="#f6e7b0" stroke-opacity="0.56" stroke-width="3"/>
  <text x="72" y="230" font-family="Arial, sans-serif" font-size="24" font-weight="900" fill="#f6e7b0">ISSUE 02 / CLASSIC ROCK</text>
  <text x="828" y="230" text-anchor="end" font-family="Arial, sans-serif" font-size="24" font-weight="900" fill="#d4af37">TOURING YEARS</text>
  <text x="68" y="346" font-family="Georgia, 'Times New Roman', serif" font-size="78" font-weight="900" fill="#fff6d7">THE</text>
  <text x="68" y="432" font-family="Georgia, 'Times New Roman', serif" font-size="96" font-weight="900" fill="#fff6d7">BEATLES</text>
  <text x="68" y="513" font-family="Georgia, 'Times New Roman', serif" font-size="62" font-weight="900" fill="#d4af37">STOP</text>
  <text x="68" y="585" font-family="Georgia, 'Times New Roman', serif" font-size="62" font-weight="900" fill="#d4af37">TOURING</text>
  <rect x="68" y="625" width="286" height="44" fill="#7a1717"/>
  <text x="88" y="656" font-family="Arial, sans-serif" font-size="24" font-weight="900" fill="#f6e7b0">COLLECTOR EDITION</text>
  <text x="590" y="502" font-family="Arial, sans-serif" font-size="27" font-weight="900" fill="#f6e7b0">BEATLEMANIA</text>
  <text x="590" y="542" font-family="Arial, sans-serif" font-size="24" font-weight="900" fill="#d4af37">TO STUDIO</text>
  <text x="590" y="578" font-family="Arial, sans-serif" font-size="24" font-weight="900" fill="#d4af37">LEGEND</text>
  <line x1="570" y1="470" x2="570" y2="618" stroke="#9b2020" stroke-width="7"/>
  <text x="78" y="770" font-family="Arial, sans-serif" font-size="24" font-weight="900" fill="#f6e7b0">THE ROOFTOP CONCERT</text>
  <text x="78" y="808" font-family="Arial, sans-serif" font-size="22" font-weight="900" fill="#d4af37">LIVE HISTORY BEFORE THE WALKAWAY</text>
  <rect x="72" y="1056" width="756" height="82" fill="#080808" opacity="0.82" stroke="#d4af37" stroke-opacity="0.5"/>
  <text x="450" y="1091" text-anchor="middle" font-family="Arial, sans-serif" font-size="24" font-weight="900" fill="#f6e7b0">FAN CULTURE / LIVE MUSIC HISTORY / WORLDWIDE PRESSINGS</text>
  <text x="450" y="1124" text-anchor="middle" font-family="Arial, sans-serif" font-size="20" font-weight="900" fill="#9b2020">A LUCYLP MUSIC HISTORY FEATURE</text>
  <rect width="900" height="1260" filter="url(#grain)" opacity="0.6"/>
</svg>
